<svg width="500" height="373" viewBox="0 0 500 373" fill="none" xmlns="http://www.w3.org/2000/svg">
<path d="M500 327.4H0V327.65H500V327.4Z" fill="#EBEBEB"/>
<path d="M449.9 343.49H428.22V343.74H449.9V343.49Z" fill="#EBEBEB"/>
<path d="M344.67 338.31H310.56V338.56H344.67V338.31Z" fill="#EBEBEB"/>
<path d="M441.12 334.21H396.59V334.46H441.12V334.21Z" fill="#EBEBEB"/>
<path d="M173.02 339.25H161.88V339.5H173.02V339.25Z" fill="#EBEBEB"/>
<path d="M152.97 339.25H114.58V339.5H152.97V339.25Z" fill="#EBEBEB"/>
<path d="M94.0101 335.03H66.3101V335.28H94.0101V335.03Z" fill="#EBEBEB"/>
<path d="M237 282.8H43.91C42.3973 282.797 40.9475 282.195 39.8788 281.124C38.8102 280.054 38.21 278.603 38.21 277.09V5.66C38.2231 4.15603 38.8292 2.71798 39.8964 1.65822C40.9637 0.598458 42.4059 0.00257639 43.91 0H237C238.514 0 239.967 0.601588 241.038 1.67242C242.108 2.74325 242.71 4.19561 242.71 5.71V277.09C242.71 278.604 242.108 280.057 241.038 281.128C239.967 282.198 238.514 282.8 237 282.8V282.8ZM43.91 0.200001C42.4636 0.20265 41.0774 0.779065 40.0556 1.80273C39.0338 2.82639 38.46 4.21365 38.46 5.66V277.09C38.46 278.536 39.0338 279.924 40.0556 280.947C41.0774 281.971 42.4636 282.547 43.91 282.55H237C238.447 282.547 239.834 281.971 240.858 280.948C241.881 279.924 242.457 278.537 242.46 277.09V5.66C242.457 4.21273 241.881 2.82549 240.858 1.80212C239.834 0.77874 238.447 0.202644 237 0.200001H43.91Z" fill="#EBEBEB"/>
<path d="M453.31 282.8H260.21C258.696 282.797 257.246 282.195 256.175 281.125C255.105 280.054 254.503 278.604 254.5 277.09V5.66C254.516 4.15511 255.124 2.71708 256.193 1.65759C257.262 0.598109 258.705 0.00254829 260.21 0H453.31C454.812 0.0052045 456.252 0.602249 457.317 1.66173C458.382 2.72121 458.987 4.15775 459 5.66V277.09C459 278.601 458.401 280.05 457.335 281.121C456.268 282.191 454.821 282.795 453.31 282.8V282.8ZM260.21 0.200001C258.763 0.202644 257.375 0.77874 256.352 1.80212C255.329 2.82549 254.753 4.21273 254.75 5.66V277.09C254.753 278.537 255.329 279.924 256.352 280.948C257.375 281.971 258.763 282.547 260.21 282.55H453.31C454.757 282.547 456.145 281.971 457.168 280.948C458.191 279.924 458.767 278.537 458.77 277.09V5.66C458.767 4.21273 458.191 2.82549 457.168 1.80212C456.145 0.77874 454.757 0.202644 453.31 0.200001H260.21Z" fill="#EBEBEB"/>
<path d="M216.07 145.88L216.52 132.74L208.46 130.1C208.113 125.647 207.391 121.231 206.3 116.9L213.14 111.9L208.5 99.5599L200.04 100.24C198.034 96.2641 195.692 92.467 193.04 88.8899L197.42 81.5799L188.42 71.9699L180.86 75.8399C177.46 72.934 173.828 70.3119 170 67.9999L171.22 59.5999L159.22 54.1599L153.72 60.5999C149.477 59.2426 145.129 58.2392 140.72 57.5999L138.72 49.3699L125.54 48.9199L122.94 56.9899C118.491 57.3397 114.079 58.0588 109.75 59.1399L104.67 52.3399L92.3298 56.9499L93.0098 65.4099C89.0361 67.4462 85.2396 69.8111 81.6598 72.4799L74.2998 67.9999L64.6498 76.9999L68.5198 84.5999C65.6132 87.9824 63.0035 91.6092 60.7198 95.4399L52.3298 94.1799L46.8498 106.18L53.3298 111.67C51.9629 115.91 50.9593 120.259 50.3298 124.67L41.9998 126.76L41.5498 139.9L49.6498 142.54C49.9849 146.99 50.7042 151.403 51.7998 155.73L44.9598 160.73L49.6098 173.08L58.0698 172.4C60.0705 176.379 62.4126 180.176 65.0698 183.75L60.6798 191.06L69.6798 200.67L77.2398 196.8C80.6304 199.705 84.2562 202.324 88.0798 204.63L86.8198 213.02L98.8198 218.47L104.35 212.03C108.593 213.399 112.941 214.42 117.35 215.08L119.35 223.31L132.53 223.76L135.13 215.69C139.581 215.336 143.996 214.617 148.33 213.54L153.33 220.34L165.67 215.73L165.03 207.27C168.996 205.221 172.792 202.856 176.38 200.2L183.65 204.58L193.3 195.58L189.43 187.98C192.337 184.598 194.947 180.971 197.23 177.14L205.62 178.4L211.1 166.4L204.62 160.9C206.01 156.663 207.03 152.313 207.67 147.9L216.07 145.88ZM127.28 188.45C116.968 188.102 106.991 184.703 98.6106 178.683C90.2305 172.664 83.824 164.294 80.2014 154.633C76.5788 144.972 75.9029 134.453 78.2592 124.408C80.6155 114.363 85.8981 105.242 93.4388 98.1993C100.98 91.1568 110.44 86.5089 120.622 84.8435C130.805 83.1782 141.253 84.5703 150.644 88.8437C160.035 93.1171 167.948 100.08 173.382 108.851C178.816 117.622 181.526 127.808 181.17 138.12C180.695 151.939 174.752 165.005 164.646 174.443C154.54 183.881 141.1 188.919 127.28 188.45V188.45Z" fill="#EBEBEB"/>
<path d="M441 102.42L444.31 99.3302L443 96.7202C443.999 95.5507 444.899 94.2997 445.69 92.9802L448.59 93.4102L450.46 89.2702L448.24 87.3802C448.718 85.9165 449.069 84.4143 449.29 82.8902L452.14 82.1802L452.28 77.6402L449.5 76.7402C449.378 75.2026 449.13 73.6775 448.76 72.1802L451.11 70.4302L449.51 66.1802L446.6 66.4102C445.898 65.0395 445.085 63.7285 444.17 62.4902L445.68 59.9902L442.57 56.6702L439.97 58.0002C438.799 57.0032 437.548 56.1035 436.23 55.3102L436.65 52.4102L432.52 50.5202L430.62 52.7502C429.153 52.2936 427.652 51.9591 426.13 51.7502L425.42 48.9102L420.88 48.7402L419.97 51.5402C418.438 51.6573 416.919 51.9049 415.43 52.2802L413.69 49.9302L409.43 51.5202L409.67 54.4402C408.295 55.1351 406.984 55.9482 405.75 56.8702L403.23 55.3602L399.91 58.4502L401.2 61.0002C400.193 62.1664 399.29 63.4177 398.5 64.7402L395.61 64.3102L393.73 68.4502L395.96 70.3502C395.498 71.8118 395.163 73.3108 394.96 74.8302L392.1 75.5402L391.96 80.0802L394.75 80.9802C394.864 82.5182 395.108 84.0436 395.48 85.5402L393.12 87.2802L394.72 91.5302L397.64 91.3102C398.342 92.6809 399.154 93.992 400.07 95.2302L398.56 97.7302L401.67 101.05L404.27 99.7202C405.439 100.72 406.69 101.62 408.01 102.41L407.58 105.3L411.72 107.19L413.62 104.97C415.088 105.422 416.589 105.757 418.11 105.97L418.82 108.81L423.36 108.98L424.27 106.18C425.802 106.064 427.321 105.816 428.81 105.44L430.55 107.79L434.81 106.2L434.58 103.28C435.951 102.584 437.259 101.771 438.49 100.85L441 102.42ZM417.38 83.2902C416.507 82.3545 415.931 81.1808 415.725 79.9176C415.518 78.6544 415.692 77.3584 416.222 76.1937C416.753 75.0289 417.617 74.0477 418.705 73.3742C419.794 72.7007 421.057 72.3651 422.337 72.4098C423.616 72.4546 424.853 72.8778 425.891 73.6258C426.93 74.3738 427.723 75.413 428.171 76.612C428.619 77.811 428.701 79.1159 428.407 80.3616C428.113 81.6073 427.457 82.7379 426.52 83.6102C425.898 84.1963 425.167 84.6533 424.367 84.9547C423.568 85.2561 422.717 85.3959 421.863 85.3662C421.009 85.3364 420.17 85.1376 419.394 84.7813C418.617 84.4249 417.919 83.9181 417.34 83.2902H417.38Z" fill="#EBEBEB"/>
<path d="M320 237.34L309.66 230.19C308.646 226.467 307.252 222.858 305.5 219.42L308.15 209.02L293.15 192.96L282.59 194.89C279.277 192.905 275.769 191.267 272.12 190V190L265.7 179.19L243.7 178.44L236.56 188.78C232.841 189.793 229.236 191.183 225.8 192.93L215.4 190.28L199.34 205.28L201.27 215.82C199.287 219.14 197.652 222.655 196.39 226.31L185.58 232.73L184.83 254.73L195.18 261.87C196.177 265.613 197.568 269.24 199.33 272.69V272.69L196.65 283L211.65 299.06L222.14 297.14C225.478 299.127 229.009 300.769 232.68 302.04V302.04L239.09 312.83L261.09 313.59L268.22 303.25C271.972 302.237 275.611 300.843 279.08 299.09L289.42 301.73L305.49 286.73L303.56 276.19C305.549 272.87 307.185 269.351 308.44 265.69V265.69L319.25 259.27L320 237.34ZM251.55 270.73C246.666 270.563 241.941 268.952 237.973 266.1C234.005 263.248 230.971 259.283 229.256 254.707C227.541 250.131 227.221 245.149 228.337 240.392C229.453 235.634 231.955 231.314 235.526 227.978C239.097 224.642 243.576 222.44 248.399 221.649C253.221 220.859 258.17 221.517 262.619 223.539C267.068 225.561 270.817 228.857 273.393 233.01C275.969 237.163 277.255 241.986 277.09 246.87C276.861 253.42 274.041 259.612 269.251 264.085C264.461 268.559 258.091 270.949 251.54 270.73H251.55Z" fill="#EBEBEB"/>
<path d="M343.55 175H343.48L326.16 174.41C325.809 174.404 325.465 174.309 325.161 174.134C324.857 173.959 324.602 173.71 324.42 173.41L319.75 165.56C317.233 164.639 314.798 163.509 312.47 162.18L305 163.47C304.652 163.534 304.293 163.508 303.958 163.397C303.622 163.285 303.32 163.09 303.08 162.83L291.25 150.17C291.002 149.908 290.825 149.586 290.738 149.236C290.65 148.885 290.654 148.518 290.75 148.17L292.64 140.76C291.469 138.359 290.512 135.859 289.78 133.29L282.25 128.09C281.958 127.889 281.721 127.618 281.562 127.302C281.403 126.985 281.327 126.634 281.34 126.28L281.93 108.96C281.942 108.61 282.039 108.269 282.213 107.965C282.388 107.662 282.634 107.406 282.93 107.22L290.8 102.55C291.707 100.039 292.835 97.6126 294.17 95.3L292.79 87.77C292.725 87.4204 292.75 87.0602 292.862 86.7228C292.974 86.3854 293.169 86.0817 293.43 85.84L306.09 74.02C306.352 73.7708 306.673 73.593 307.023 73.5037C307.373 73.4144 307.741 73.4166 308.09 73.51L315.53 75.41C317.925 74.2384 320.418 73.2781 322.98 72.54L328.18 65.01C328.373 64.7109 328.643 64.4688 328.961 64.3088C329.279 64.1488 329.634 64.0767 329.99 64.1L347.3 64.7C347.652 64.7074 347.996 64.8028 348.302 64.9775C348.608 65.1522 348.865 65.4005 349.05 65.7L353.72 73.56C356.219 74.4775 358.635 75.6083 360.94 76.94L368.5 75.55C368.848 75.4853 369.207 75.5101 369.542 75.6221C369.878 75.734 370.18 75.9294 370.42 76.19L382.25 88.85C382.496 89.1132 382.672 89.4351 382.759 89.7851C382.847 90.1351 382.844 90.5016 382.75 90.85L380.85 98.28C382.021 100.676 382.985 103.169 383.73 105.73L391.25 110.93C391.542 111.13 391.778 111.402 391.938 111.718C392.097 112.034 392.173 112.386 392.16 112.74L391.57 130.05C391.558 130.401 391.461 130.744 391.286 131.049C391.112 131.354 390.866 131.612 390.57 131.8L382.7 136.47C381.786 138.975 380.659 141.398 379.33 143.71L380.71 151.25C380.775 151.598 380.75 151.957 380.638 152.293C380.526 152.628 380.33 152.93 380.07 153.17L367.33 165C367.068 165.248 366.746 165.425 366.395 165.512C366.045 165.6 365.678 165.596 365.33 165.5L357.93 163.61C355.519 164.776 353.013 165.736 350.44 166.48L345.29 174C345.104 174.297 344.849 174.543 344.545 174.718C344.242 174.892 343.9 174.989 343.55 175V175ZM327.46 170.23L342.46 170.74L347.46 163.55C347.737 163.13 348.162 162.83 348.65 162.71C351.464 161.94 354.194 160.892 356.8 159.58V159.58C357.254 159.361 357.771 159.308 358.26 159.43L365.26 161.22L376.26 150.97L375 143.74C374.903 143.235 374.995 142.711 375.26 142.27C376.745 139.794 377.968 137.17 378.91 134.44C379.069 133.945 379.403 133.525 379.85 133.26L387.38 128.8L387.89 113.8L380.69 108.8C380.311 108.541 380.026 108.165 379.88 107.73C379.88 107.68 379.88 107.62 379.88 107.56C379.109 104.796 378.064 102.116 376.76 99.56C376.528 99.1024 376.472 98.5763 376.6 98.08L378.4 91L368.15 80L360.96 81.32C360.458 81.411 359.94 81.3187 359.5 81.06C357.019 79.5717 354.392 78.342 351.66 77.39C351.503 77.3397 351.352 77.2727 351.21 77.19C350.922 77.0101 350.682 76.763 350.51 76.47L346 68.92L331 68.4L326 75.61C325.702 76.0326 325.262 76.3343 324.76 76.46C321.975 77.221 319.274 78.263 316.7 79.57C316.246 79.8016 315.723 79.8585 315.23 79.73L308.15 77.93L297.15 88.18L298.47 95.35C298.548 95.8022 298.482 96.2677 298.28 96.68L298.18 96.85C296.693 99.3356 295.469 101.97 294.53 104.71C294.364 105.18 294.039 105.576 293.61 105.83L286.08 110.3L285.57 125.3L292.78 130.3C293.191 130.581 293.489 130.999 293.62 131.48C294.369 134.288 295.412 137.01 296.73 139.6C296.801 139.747 296.858 139.902 296.9 140.06C296.975 140.389 296.975 140.731 296.9 141.06L295.1 148.06L305.35 159.06L312.49 157.75C312.989 157.659 313.504 157.751 313.94 158.01C316.44 159.495 319.083 160.725 321.83 161.68C322.325 161.827 322.745 162.16 323 162.61L327.46 170.23ZM336.73 151.26C336.36 151.26 335.99 151.26 335.62 151.26C327.307 151.114 319.388 147.69 313.587 141.734C307.786 135.778 304.573 127.771 304.646 119.457C304.719 111.143 308.073 103.195 313.978 97.3419C319.883 91.4888 327.861 88.2048 336.175 88.2048C344.489 88.2048 352.467 91.4888 358.372 97.3419C364.276 103.195 367.63 111.143 367.704 119.457C367.777 127.771 364.563 135.778 358.762 141.734C352.961 147.69 345.043 151.114 336.73 151.26ZM336.73 92.17C329.465 92.2952 322.544 95.2851 317.474 100.489C312.403 105.692 309.593 112.688 309.656 119.953C309.719 127.219 312.649 134.165 317.808 139.28C322.968 144.396 329.939 147.266 337.205 147.266C344.47 147.266 351.442 144.396 356.601 139.28C361.761 134.165 364.691 127.219 364.754 119.953C364.816 112.688 362.007 105.692 356.936 100.489C351.865 95.2851 344.944 92.2952 337.68 92.17H336.73Z" fill="#EBEBEB"/>
<path d="M383.44 50.3199L376.26 48.3999L374.34 41.2199L377.15 38.4199L380.11 44.5499L386.25 47.5199L383.44 50.3199Z" fill="#DBE2E5"/>
<path d="M383.88 45.5202C384.19 45.2096 384.437 44.8409 384.605 44.4351C384.773 44.0293 384.86 43.5944 384.86 43.1552C384.86 42.716 384.773 42.281 384.605 41.8752C384.437 41.4695 384.19 41.1008 383.88 40.7902C383.569 40.4796 383.201 40.2332 382.795 40.0652C382.389 39.8971 381.954 39.8106 381.515 39.8106C381.076 39.8106 380.641 39.8971 380.235 40.0652C379.829 40.2332 379.46 40.4796 379.15 40.7902L382.72 35.4302L387.5 37.8502L388.55 42.8502L383.88 45.5202Z" fill="#DBE2E5"/>
<path d="M376.58 39.0002L381.84 33.7402L389 35.6502L390.93 42.8202L385.67 48.0802L378.5 46.1502L376.58 39.0002ZM386.13 43.3002C386.598 42.8316 386.917 42.2347 387.046 41.5849C387.175 40.9352 387.108 40.2618 386.855 39.6499C386.601 39.0379 386.172 38.5149 385.621 38.147C385.07 37.779 384.423 37.5826 383.76 37.5826C383.098 37.5826 382.45 37.779 381.899 38.147C381.348 38.5149 380.919 39.0379 380.665 39.6499C380.412 40.2618 380.345 40.9352 380.474 41.5849C380.603 42.2347 380.922 42.8316 381.39 43.3002C382.024 43.9217 382.877 44.2682 383.764 44.2644C384.652 44.2607 385.502 43.907 386.13 43.2802V43.3002Z" fill="#F0F0F0"/>
<path d="M90.22 241.71L94.07 240.67L95.1 236.82L93.6 235.32L92.01 238.61L88.71 240.2L90.22 241.71Z" fill="#DBE2E5"/>
<path d="M89.9999 239.13C89.6991 238.787 89.5401 238.341 89.5552 237.885C89.5703 237.428 89.7584 236.995 90.0814 236.672C90.4044 236.349 90.8381 236.161 91.2946 236.145C91.7511 236.13 92.1963 236.289 92.5399 236.59L90.6299 233.72L87.9999 235L87.4399 237.7L89.9999 239.13Z" fill="#DBE2E5"/>
<path d="M93.9 235.62L91.08 232.8L87.23 233.8L86.23 237.65L89 240.5L92.85 239.5L93.9 235.62ZM88.78 237.93C88.5946 237.767 88.4445 237.569 88.339 237.346C88.2335 237.123 88.1749 236.881 88.1667 236.635C88.1585 236.389 88.201 236.144 88.2915 235.914C88.3821 235.685 88.5187 235.477 88.6929 235.303C88.8672 235.129 89.0753 234.992 89.3045 234.901C89.5337 234.811 89.779 234.768 90.0253 234.777C90.2716 234.785 90.5136 234.843 90.7363 234.949C90.959 235.054 91.1577 235.204 91.32 235.39C91.6209 235.733 91.7799 236.179 91.7647 236.635C91.7496 237.092 91.5615 237.525 91.2385 237.848C90.9155 238.171 90.4818 238.359 90.0253 238.375C89.5688 238.39 89.1236 238.231 88.78 237.93V237.93Z" fill="#F0F0F0"/>
<path d="M76.3602 30.66L79.5602 33.86C79.9604 34.2533 80.499 34.4737 81.0602 34.4737C81.6213 34.4737 82.16 34.2533 82.5602 33.86V33.86C82.9511 33.4586 83.1699 32.9204 83.1699 32.36C83.1699 31.7997 82.9511 31.2615 82.5602 30.86L79.3702 27.67C78.9687 27.2791 78.4305 27.0603 77.8702 27.0603C77.3098 27.0603 76.7716 27.2791 76.3702 27.67V27.67C75.9785 28.0685 75.7582 28.6043 75.7564 29.163C75.7545 29.7217 75.9712 30.259 76.3602 30.66Z" fill="#F0F0F0"/>
<path d="M74.1102 22.71C74.9452 22.4778 75.8299 22.4945 76.6556 22.7581C77.4812 23.0216 78.212 23.5206 78.758 24.1936C79.3041 24.8666 79.6418 25.6845 79.7295 26.5467C79.8173 27.409 79.6514 28.2781 79.2521 29.0474C78.8528 29.8166 78.2376 30.4526 77.482 30.8771C76.7263 31.3016 75.8632 31.4962 74.9985 31.437C74.1338 31.3778 73.3052 31.0674 72.6145 30.5439C71.9238 30.0204 71.4009 29.3065 71.1102 28.49C70.9256 27.9136 70.8569 27.3064 70.908 26.7032C70.959 26.1001 71.1288 25.5131 71.4077 24.9759C71.6865 24.4387 72.0688 23.9619 72.5326 23.573C72.9965 23.1842 73.5326 22.8909 74.1102 22.71V22.71Z" fill="#DBE2E5"/>
<path d="M70.6296 27.9546L71.0928 29.2439L80.5981 25.8293L80.1349 24.5399L70.6296 27.9546Z" fill="#F0F0F0"/>
<path d="M250 372.56C357.082 372.56 443.89 367.492 443.89 361.24C443.89 354.988 357.082 349.92 250 349.92C142.917 349.92 56.1099 354.988 56.1099 361.24C56.1099 367.492 142.917 372.56 250 372.56Z" fill="#DBE2E6"/>
<path d="M86.7202 65.6498C85.7202 61.2398 86.1602 57.5398 88.0602 54.5198C89.9602 51.4998 93.0602 49.5198 97.4702 48.5198C101.88 47.5198 105.69 47.9198 108.67 49.7798C111.65 51.6398 113.67 54.7798 114.67 59.0798C115.376 61.7338 115.434 64.5186 114.84 67.1998C114.259 69.4266 113.03 71.431 111.31 72.9598C109.267 74.68 106.815 75.8442 104.19 76.3398C101.617 77.0229 98.9236 77.1152 96.3102 76.6098C94.0385 76.0577 91.9838 74.8388 90.4102 73.1098C88.5302 71.0012 87.2553 68.4237 86.7202 65.6498V65.6498ZM95.0602 63.7898C95.6802 66.5098 96.6302 68.3498 97.9102 69.3098C98.5709 69.7504 99.3139 70.0528 100.095 70.1989C100.875 70.3449 101.677 70.3316 102.453 70.1597C103.228 69.9878 103.96 69.6609 104.606 69.1987C105.252 68.7364 105.798 68.1484 106.21 67.4698C106.93 66.0798 106.94 63.8698 106.26 60.8598C105.68 58.3198 104.744 56.5798 103.45 55.6398C102.799 55.1725 102.051 54.8571 101.262 54.7169C100.473 54.5767 99.6625 54.6153 98.8902 54.8298C98.1172 54.9746 97.3872 55.2928 96.755 55.7604C96.1227 56.2281 95.6048 56.8331 95.2402 57.5298C94.5002 58.9998 94.4302 60.9998 95.0602 63.7898Z" fill="#1D3440"/>
<path d="M118.59 62.3498C118.235 60.987 118.172 59.5646 118.404 58.1756C118.637 56.7866 119.161 55.4625 119.94 54.2898C120.815 53.044 121.926 51.983 123.212 51.1679C124.497 50.3528 125.931 49.7995 127.43 49.5398C131.344 48.6531 134.557 49.1165 137.07 50.9298C139.186 52.5695 140.624 54.93 141.11 57.5616C141.597 60.1932 141.099 62.9119 139.71 65.1998C138.15 67.5798 135.61 69.1665 132.09 69.9598C129.379 70.7179 126.485 70.4839 123.93 69.2998C122.564 68.6321 121.371 67.6572 120.445 66.4515C119.518 65.2457 118.884 63.8418 118.59 62.3498V62.3498ZM126.1 60.6198C126.303 62.0172 126.985 63.3006 128.03 64.2498C128.445 64.5634 128.922 64.7831 129.43 64.8935C129.938 65.0039 130.464 65.0024 130.971 64.8892C131.478 64.776 131.955 64.5537 132.367 64.2378C132.78 63.9218 133.119 63.5199 133.36 63.0598C133.884 61.7166 133.933 60.2349 133.5 58.8598C133.29 57.4952 132.615 56.2449 131.59 55.3198C131.193 54.9973 130.726 54.7709 130.226 54.6582C129.727 54.5454 129.208 54.5494 128.71 54.6698C128.192 54.7773 127.704 55.0016 127.285 55.3256C126.865 55.6496 126.525 56.0648 126.29 56.5398C125.752 57.8357 125.685 59.2794 126.1 60.6198Z" fill="#1D3440"/>
<path d="M148.58 73.57L142.45 46.57L149.45 44.97L150.11 47.86C150.604 46.7074 151.321 45.664 152.22 44.79C153.207 43.9525 154.385 43.372 155.65 43.1C156.819 42.782 158.05 42.7637 159.228 43.0468C160.406 43.33 161.493 43.9054 162.39 44.72C164.367 46.5676 165.707 48.9935 166.22 51.65C166.96 54.9 166.74 57.56 165.58 59.65C165.028 60.6492 164.266 61.5165 163.346 62.1917C162.425 62.8669 161.369 63.3338 160.25 63.56C159.172 63.8155 158.055 63.8597 156.96 63.69C155.91 63.506 154.909 63.1078 154.02 62.52L156.14 71.85L148.58 73.57ZM152.19 54.71C152.374 55.9589 152.998 57.101 153.95 57.93C154.332 58.2223 154.775 58.4245 155.246 58.5215C155.717 58.6185 156.204 58.6077 156.67 58.49C157.103 58.4032 157.51 58.2159 157.857 57.9432C158.205 57.6705 158.483 57.32 158.67 56.92C159.095 55.6684 159.095 54.3115 158.67 53.06C158.487 51.8048 157.885 50.6485 156.96 49.78C156.617 49.4952 156.214 49.2929 155.78 49.1889C155.347 49.0849 154.895 49.0818 154.46 49.18C154.001 49.2792 153.57 49.4809 153.199 49.77C152.829 50.0592 152.528 50.4284 152.32 50.85C151.831 52.0827 151.785 53.4471 152.19 54.71Z" fill="#1D3440"/>
<path d="M169.43 55.2997L176.71 52.9097C177.097 53.6135 177.7 54.1743 178.43 54.5097C179.216 54.7372 180.047 54.7553 180.842 54.5624C181.636 54.3694 182.367 53.972 182.96 53.4097C183.126 53.2332 183.247 53.019 183.311 52.7855C183.376 52.552 183.382 52.3063 183.33 52.0697C183.27 51.799 183.13 51.5524 182.929 51.3617C182.728 51.171 182.474 51.045 182.2 50.9997C181.07 50.8756 179.93 50.8756 178.8 50.9997C176.904 51.161 174.997 51.161 173.1 50.9997C171.99 50.8385 170.949 50.3632 170.1 49.6297C169.195 48.8459 168.569 47.7885 168.318 46.6175C168.068 45.4464 168.205 44.2255 168.71 43.1397C169.293 41.9777 170.2 41.0089 171.32 40.3497C172.915 39.4435 174.648 38.805 176.45 38.4597C178.17 37.9929 179.949 37.7773 181.73 37.8197C182.849 37.8917 183.934 38.2349 184.89 38.8197C185.91 39.5073 186.775 40.3996 187.43 41.4397L180.43 43.7497C180.169 43.2287 179.734 42.815 179.2 42.5797C178.471 42.3187 177.68 42.2839 176.93 42.4797C176.268 42.572 175.654 42.8774 175.18 43.3497C175.03 43.5107 174.921 43.706 174.864 43.9187C174.806 44.1313 174.802 44.3548 174.85 44.5697C174.904 44.8061 175.029 45.0206 175.208 45.1849C175.386 45.3491 175.61 45.4554 175.85 45.4897C176.968 45.6194 178.099 45.5959 179.21 45.4197C181.139 45.1402 183.095 45.1133 185.03 45.3397C186.248 45.5116 187.388 46.0366 188.31 46.8497C189.144 47.6058 189.724 48.6013 189.97 49.6997C190.226 50.8775 190.133 52.1045 189.7 53.2297C189.172 54.5618 188.251 55.702 187.06 56.4997C185.306 57.6463 183.341 58.4316 181.28 58.8097C177.714 59.623 175.047 59.693 173.28 59.0197C171.559 58.3323 170.176 56.9964 169.43 55.2997V55.2997Z" fill="#1D3440"/>
<path d="M193.85 30.5698H202.06V36.8698L200.55 49.5398H195.47L193.85 36.8898V30.5698ZM194.25 51.4498H201.91V58.2298H194.25V51.4498Z" fill="#1D3440"/>
<path d="M128.68 116.58H128.5C124 114.83 121.31 113.13 119.91 111.08C118.814 111.288 117.68 111.134 116.68 110.64C115.508 110.067 114.536 109.154 113.89 108.02C113.55 108.281 113.15 108.451 112.727 108.516C112.304 108.581 111.872 108.538 111.47 108.39C110.237 107.929 109.186 107.084 108.47 105.98C108.022 106.314 107.465 106.467 106.91 106.41C103.91 106.17 99.9098 100.25 99.6198 93.9504C99.6168 93.8174 99.6649 93.6884 99.7542 93.5898C99.8435 93.4912 99.9671 93.4306 100.1 93.4204C100.165 93.4177 100.231 93.428 100.293 93.4507C100.354 93.4734 100.411 93.508 100.459 93.5526C100.508 93.5971 100.547 93.6508 100.574 93.7105C100.602 93.7702 100.617 93.8347 100.62 93.9004C100.9 99.9004 104.73 105.23 107 105.41C107.165 105.429 107.332 105.415 107.492 105.368C107.651 105.322 107.8 105.244 107.93 105.14C107.148 103.715 106.657 102.148 106.485 100.531C106.313 98.9136 106.464 97.2785 106.93 95.7204C107.79 92.7204 108.55 91.5404 109.47 91.7204C111.19 92.1504 110.96 98.7204 110.05 103.01C109.912 103.784 109.627 104.524 109.21 105.19C109.799 106.179 110.689 106.953 111.75 107.4C112.032 107.508 112.34 107.532 112.636 107.47C112.932 107.408 113.204 107.262 113.42 107.05C112.64 105.12 112.42 102.48 113.54 99.1204C114.94 94.6904 115.54 94.5704 115.85 94.4904C115.966 94.4659 116.087 94.4734 116.2 94.5121C116.313 94.5508 116.413 94.6194 116.49 94.7104C117.42 95.7604 116.31 102.64 115.15 106.04C115.014 106.45 114.826 106.839 114.59 107.2C115.126 108.282 116 109.159 117.08 109.7C117.788 110.045 118.575 110.193 119.36 110.13C119.27 109.94 119.19 109.75 119.11 109.55C118.32 107.4 118.71 104.93 120.3 101.97C121.35 100.02 122.21 99.1004 123.01 99.1004C123.222 99.1032 123.429 99.1669 123.606 99.2839C123.784 99.4009 123.924 99.5662 124.01 99.7604C124.88 101.37 124.25 106.68 122.53 109.32C122.127 109.926 121.567 110.41 120.91 110.72C122.25 112.48 124.8 114.03 128.91 115.61C128.971 115.633 129.028 115.667 129.076 115.711C129.124 115.756 129.163 115.809 129.19 115.869C129.217 115.929 129.232 115.993 129.233 116.059C129.235 116.124 129.224 116.189 129.2 116.25C129.161 116.355 129.089 116.443 128.995 116.503C128.901 116.562 128.791 116.59 128.68 116.58ZM123 100.11C123 100.11 122.43 100.11 121.17 102.46C119.72 105.14 119.35 107.35 120.04 109.21C120.123 109.441 120.224 109.665 120.34 109.88C120.881 109.657 121.342 109.273 121.66 108.78C123.06 106.64 123.73 102.24 123.21 100.52C123.14 100.17 123 100.11 123 100.11ZM115.82 95.9004C115.278 97.0389 114.83 98.2194 114.48 99.4304C113.713 101.529 113.581 103.807 114.1 105.98L114.19 105.72C115.24 102.551 115.8 99.2391 115.85 95.9004H115.82ZM109.24 92.7504C109.07 92.9004 108.58 93.5304 107.89 95.9704C107.074 98.7087 107.331 101.655 108.61 104.21C108.815 103.763 108.966 103.293 109.06 102.81C110.13 97.9004 109.83 93.4604 109.27 92.7504H109.24Z" fill="#1D3440"/>
<path d="M166.7 169C165.101 169.015 163.527 168.605 162.14 167.81C162.026 167.741 161.943 167.631 161.909 167.502C161.875 167.373 161.894 167.236 161.96 167.12C161.993 167.064 162.037 167.014 162.089 166.975C162.141 166.936 162.201 166.908 162.264 166.892C162.327 166.876 162.393 166.873 162.458 166.883C162.522 166.893 162.584 166.916 162.64 166.95C166.21 169.04 170.82 167.58 171.77 166.05C171.838 165.954 171.887 165.845 171.913 165.73C171.939 165.615 171.941 165.496 171.92 165.38C170.094 165.485 168.287 164.97 166.79 163.92C164.24 162.33 164.04 161.85 164.06 161.47C164.065 161.361 164.099 161.255 164.159 161.164C164.218 161.072 164.302 160.998 164.4 160.95C165.4 160.45 169.91 162.52 171.79 163.76C172.015 163.91 172.223 164.084 172.41 164.28C173.148 164.113 173.814 163.713 174.31 163.14C174.589 162.812 174.79 162.426 174.9 162.01H174.7C173.1 162.17 171.5 161.48 169.79 159.9C168.61 158.82 168.16 158.07 168.31 157.48C168.355 157.314 168.447 157.165 168.575 157.05C168.702 156.935 168.86 156.858 169.03 156.83C170.41 156.48 173.83 157.94 175.22 159.47C175.53 159.803 175.75 160.209 175.86 160.65C177.17 160.04 178.55 158.65 180.18 156.38C180.218 156.326 180.266 156.28 180.322 156.245C180.377 156.209 180.44 156.185 180.505 156.174C180.57 156.163 180.636 156.165 180.701 156.18C180.765 156.194 180.826 156.222 180.88 156.26C180.987 156.338 181.059 156.455 181.082 156.586C181.104 156.716 181.075 156.851 181 156.96C179.11 159.6 177.53 161.1 175.95 161.71C175.868 162.449 175.565 163.146 175.08 163.71C174.504 164.38 173.747 164.869 172.9 165.12C172.947 165.359 172.947 165.605 172.899 165.843C172.851 166.082 172.756 166.308 172.62 166.51C171.78 167.94 169.36 169 166.7 169ZM165.81 162.06C166.15 162.31 166.63 162.64 167.32 163.06C168.395 163.785 169.63 164.238 170.92 164.38C169.31 163.415 167.596 162.637 165.81 162.06V162.06ZM169.3 157.81C169.587 158.351 169.986 158.825 170.47 159.2C171.95 160.57 173.3 161.2 174.6 161.04H174.92C174.849 160.729 174.697 160.443 174.48 160.21C173.08 158.63 170 157.65 169.3 157.81Z" fill="#1D3440"/>
<path d="M179.94 167.63L164.36 170.46L150.21 93.2402L120.15 98.7002L71.1499 185.7L76.4099 214.41L139.26 203L143.56 226.48L173.62 221L169.32 197.52L184.9 194.69L179.94 167.63ZM101.09 182L127.09 136.43L134.34 175.97L101.09 182Z" fill="#1AC4B6"/>
<path d="M305.43 88.0002C304.957 83.1459 303.882 78.3692 302.23 73.7802C300.531 69.3843 298.17 65.2736 295.23 61.5902C291.75 57.3048 287.427 53.7788 282.53 51.2302C277.197 48.3035 270.123 46.2669 261.31 45.1202C243.01 42.7335 228.75 45.9802 218.53 54.8602C208.31 63.7402 201.577 80.7402 198.33 105.86C197.034 115.248 196.699 124.744 197.33 134.2C197.997 142.867 199.59 149.844 202.11 155.13C205.317 162.26 210.376 168.399 216.76 172.91C223.073 177.344 231.74 180.274 242.76 181.7C262.347 184.254 276.87 180.49 286.33 170.41C295.79 160.33 302.057 143.297 305.13 119.31C306.496 108.924 306.597 98.4106 305.43 88.0002V88.0002Z" fill="#1AC4B6"/>
<path d="M251.77 171.43C249.36 171.35 246.77 171.13 244.16 170.79C235 169.6 227.92 167.28 223.1 163.9C218.293 160.506 214.493 155.876 212.1 150.5L212.05 150.39C210.13 146.39 208.87 140.64 208.32 133.39C207.737 124.682 208.046 115.936 209.24 107.29C212.81 79.5702 220.18 68.0002 225.73 63.1802C232.21 57.5602 240.96 55.0202 252.46 55.4202C254.82 55.5002 257.32 55.7102 259.89 56.0402C267.27 57.0402 273.12 58.6402 277.26 60.9002C280.837 62.7424 284.004 65.2904 286.57 68.3902C288.815 71.1898 290.619 74.3159 291.92 77.6602C293.249 81.3893 294.109 85.269 294.48 89.2102C295.547 98.7599 295.449 108.404 294.19 117.93C291.42 139.47 286.06 154.61 278.27 162.93C272.49 169.09 263.82 171.93 251.76 171.47L251.77 171.43Z" fill="#1D3440"/>
<path d="M271.34 88.2903L271.47 84.5003L269.14 83.7403C269.041 82.4584 268.833 81.1873 268.52 79.9403L270.52 78.4803L269.18 74.9203L266.74 75.1203C266.166 73.9761 265.497 72.8823 264.74 71.8503L266 69.7403L263.4 66.9703L261.22 68.0903C260.244 67.2517 259.201 66.4957 258.1 65.8303L258.45 63.4103L254.99 61.8403L253.41 63.7003C252.186 63.3038 250.932 63.0095 249.66 62.8203L249.07 60.4503L245.27 60.3203L244.52 62.6403C243.238 62.7429 241.967 62.9502 240.72 63.2603L239.25 61.2603L235.69 62.5903L235.89 65.0303C234.746 65.6046 233.652 66.2736 232.62 67.0303L230.52 65.7603L227.74 68.3503L228.86 70.5403C228.019 71.5151 227.266 72.5625 226.61 73.6703L224.19 73.3003L222.61 76.7603L224.48 78.3403C224.074 79.5646 223.779 80.8231 223.6 82.1003L221.22 82.7003L221.09 86.4803L223.42 87.2403C223.517 88.5257 223.725 89.8003 224.04 91.0503L222.04 92.5003L223.38 96.0603L225.82 95.8603C226.388 97.0077 227.057 98.102 227.82 99.1303L226.55 101.24L229.15 104.01L231.33 102.9C232.305 103.736 233.349 104.488 234.45 105.15L234.09 107.57L237.55 109.14L239.14 107.29C240.367 107.685 241.624 107.976 242.9 108.16L243.49 110.54L247.28 110.67L248.03 108.34C249.315 108.243 250.59 108.035 251.84 107.72L253.29 109.72L256.85 108.39L256.66 105.96C257.8 105.379 258.893 104.71 259.93 103.96L262.03 105.22L264.81 102.63L263.7 100.44C264.538 99.4688 265.287 98.4247 265.94 97.3203L268.36 97.6803L269.94 94.2203L268.08 92.6403C268.478 91.4178 268.769 90.1631 268.95 88.8903L271.34 88.2903ZM245.74 100.56C242.778 100.452 239.915 99.4689 237.511 97.7347C235.107 96.0006 233.272 93.5933 232.235 90.8166C231.198 88.04 231.007 85.0185 231.687 82.1335C232.366 79.2485 233.884 76.6293 236.05 74.6066C238.217 72.5839 240.934 71.2482 243.859 70.7683C246.783 70.2883 249.785 70.6856 252.484 71.9099C255.183 73.1342 257.459 75.1307 259.024 77.6473C260.59 80.164 261.375 83.088 261.28 86.0503C261.217 88.0248 260.764 89.9674 259.948 91.7665C259.132 93.5656 257.969 95.1858 256.525 96.534C255.081 97.8823 253.385 98.932 251.534 99.6229C249.683 100.314 247.714 100.632 245.74 100.56V100.56Z" fill="#1AC4B6"/>
<path opacity="0.3" d="M287.12 157.87L287.4 155.31L285.86 154.69C285.857 153.819 285.784 152.949 285.64 152.09L287.03 151.2L286.32 148.73H284.66C284.332 147.927 283.933 147.154 283.47 146.42L284.41 145.06L282.81 143.06L281.28 143.7C280.66 143.087 279.991 142.525 279.28 142.02L279.65 140.4L277.4 139.16L276.22 140.35C275.416 140.019 274.587 139.755 273.74 139.56L273.46 137.93L270.91 137.64L270.28 139.18C269.411 139.184 268.544 139.265 267.69 139.42L266.8 138L264.33 138.73V140.39C263.526 140.722 262.753 141.124 262.02 141.59L260.66 140.59L258.66 142.19L259.3 143.72C258.69 144.341 258.132 145.01 257.63 145.72L256.01 145.36L254.78 147.61L255.96 148.78C255.625 149.586 255.36 150.419 255.17 151.27L253.53 151.54L253.26 154.09L254.79 154.73C254.791 155.595 254.867 156.459 255.02 157.31L253.61 158.2L254.33 160.67H256C256.334 161.47 256.735 162.239 257.2 162.97L256.2 164.33L257.8 166.33L259.35 165.68C259.965 166.295 260.635 166.854 261.35 167.35L261 169L263.25 170.23L264.42 169.06C265.224 169.383 266.054 169.641 266.9 169.83L267.19 171.47L269.74 171.75L270.36 170.22C271.244 170.219 272.127 170.145 273 170L273.89 171.41L276.35 170.69V169.03C277.154 168.692 277.929 168.291 278.67 167.83L280.01 168.83L282.01 167.22L281.36 165.69C281.976 165.07 282.541 164.401 283.05 163.69L284.66 164.05L285.9 161.8L284.72 160.64C285.041 159.835 285.299 159.006 285.49 158.16L287.12 157.87ZM274.25 156.87C273.827 157.644 273.183 158.276 272.401 158.684C271.619 159.093 270.734 159.26 269.856 159.165C268.979 159.07 268.15 158.717 267.473 158.151C266.797 157.585 266.303 156.83 266.056 155.984C265.808 155.137 265.817 154.235 266.081 153.394C266.346 152.552 266.854 151.808 267.542 151.255C268.23 150.702 269.066 150.366 269.945 150.288C270.824 150.211 271.706 150.396 272.48 150.82C273.514 151.39 274.281 152.346 274.613 153.48C274.944 154.614 274.814 155.832 274.25 156.87V156.87Z" fill="#1AC4B6"/>
<path d="M301.29 114.65L298.29 112.59C297.995 111.519 297.593 110.481 297.09 109.49L297.85 106.49L293.53 101.86L290.53 102.42C289.578 101.854 288.573 101.381 287.53 101.01V101.01L285.68 97.8902L279.35 97.6802L277.29 100.68C276.218 100.971 275.179 101.373 274.19 101.88L271.19 101.11L266.56 105.44L267.12 108.44C266.545 109.388 266.073 110.393 265.71 111.44L262.6 113.29L262.38 119.62L265.38 121.68C265.671 122.759 266.073 123.805 266.58 124.8V124.8L265.82 127.8L270.14 132.43L273.14 131.88C274.092 132.446 275.097 132.918 276.14 133.29V133.29L277.98 136.4L284.32 136.62L286.37 133.62C287.451 133.327 288.5 132.925 289.5 132.42V132.42L292.5 133.18L297.13 128.86L296.58 125.86C297.148 124.909 297.621 123.904 297.99 122.86V122.86L301.1 121.01L301.29 114.65ZM281.56 124.27C280.152 124.222 278.791 123.757 277.648 122.935C276.504 122.113 275.63 120.97 275.136 119.651C274.642 118.333 274.551 116.897 274.873 115.526C275.195 114.155 275.916 112.91 276.946 111.949C277.975 110.989 279.267 110.354 280.656 110.127C282.046 109.9 283.472 110.091 284.754 110.674C286.036 111.258 287.116 112.208 287.857 113.405C288.599 114.603 288.969 115.993 288.92 117.4C288.852 119.286 288.039 121.068 286.66 122.356C285.28 123.644 283.446 124.332 281.56 124.27V124.27Z" fill="white"/>
<path d="M323 64.1204L323.52 62.8704C323.873 62.6711 324.208 62.4402 324.52 62.1804H325.68L327.04 60.1804L326.6 59.1104C326.768 58.754 326.902 58.3823 327 58.0004V58.0004L328 57.0804L327.58 54.7304L326.32 54.2104C326.122 53.8557 325.891 53.5209 325.63 53.2104V52.0504L323.68 50.6904L322.6 51.1404C322.205 51.0013 321.796 50.9074 321.38 50.8604L320.46 49.8604L318.12 50.2803L317.59 51.5404C317.219 51.7327 316.867 51.9605 316.54 52.2204V52.2204H315.39L314.03 54.2204L314.47 55.2904C314.336 55.6865 314.242 56.0953 314.19 56.5104L313.19 57.4404L313.61 59.7803L314.87 60.3004C315.061 60.6567 315.289 60.9919 315.55 61.3004V61.3004V62.4503L317.55 63.8103L318.62 63.3704C319.02 63.5004 319.432 63.5908 319.85 63.6404V63.6404L320.77 64.6404L323 64.1204ZM318 57.6404C317.905 57.1186 317.968 56.5805 318.179 56.0942C318.39 55.6078 318.741 55.1952 319.187 54.9083C319.633 54.6215 320.154 54.4734 320.685 54.4828C321.215 54.4923 321.73 54.6587 322.166 54.9612C322.601 55.2637 322.937 55.6886 323.131 56.1821C323.325 56.6757 323.368 57.2156 323.255 57.7337C323.142 58.2518 322.878 58.7247 322.496 59.0926C322.114 59.4605 321.632 59.7068 321.11 59.8004C320.411 59.9229 319.693 59.7647 319.111 59.3602C318.528 58.9557 318.129 58.3376 318 57.6404V57.6404Z" fill="#1AC4B6"/>
<path d="M295.61 57.4903L294.84 56.8403C296.49 54.7937 298.529 53.0943 300.84 51.8403L301.31 52.7203C299.112 53.9167 297.175 55.5382 295.61 57.4903V57.4903Z" fill="#1AC4B6"/>
<path d="M303.59 51.8004L303.2 50.8804C306.892 49.2757 310.931 48.629 314.94 49.0004L314.84 50.0004C310.998 49.6383 307.127 50.2576 303.59 51.8004V51.8004Z" fill="#1AC4B6"/>
<path d="M301.7 58.72L300.88 58.16C303.289 54.9067 306.795 52.6365 310.75 51.77L310.94 52.77C307.244 53.5771 303.964 55.6896 301.7 58.72V58.72Z" fill="#1AC4B6"/>
<path d="M235.34 155C235.204 154.996 235.074 154.939 234.98 154.84L232.89 152.68C231.824 152.584 230.77 152.39 229.74 152.1L226.47 153.54C226.398 153.58 226.317 153.6 226.235 153.6C226.153 153.6 226.072 153.58 226 153.54L220.52 149.91C220.449 149.864 220.392 149.8 220.353 149.724C220.315 149.649 220.296 149.565 220.3 149.48V145.92C219.631 145.084 219.042 144.187 218.54 143.24L215.73 142.16C215.651 142.13 215.582 142.08 215.527 142.015C215.473 141.951 215.436 141.873 215.42 141.79L214.12 135.35C214.103 135.268 214.107 135.183 214.131 135.102C214.156 135.022 214.2 134.949 214.26 134.89L216.42 132.8C216.523 131.736 216.717 130.682 217 129.65L215.56 126.38C215.521 126.308 215.5 126.228 215.5 126.145C215.5 126.063 215.521 125.982 215.56 125.91L219.19 120.43C219.235 120.358 219.299 120.3 219.375 120.261C219.45 120.222 219.535 120.205 219.62 120.21L223.18 120.26C224.014 119.588 224.912 118.999 225.86 118.5L226.95 115.69C226.979 115.612 227.027 115.543 227.09 115.489C227.153 115.435 227.229 115.397 227.31 115.38L233.75 114.08C233.832 114.062 233.918 114.066 233.998 114.09C234.079 114.115 234.152 114.159 234.21 114.22L236.3 116.38C237.369 116.478 238.426 116.672 239.46 116.96L242.72 115.52C242.794 115.481 242.876 115.46 242.96 115.46C243.044 115.46 243.126 115.481 243.2 115.52L248.67 119.15C248.739 119.199 248.796 119.263 248.836 119.338C248.876 119.413 248.898 119.496 248.9 119.58L248.84 123.14C249.512 123.977 250.105 124.874 250.61 125.82L253.41 126.91C253.488 126.939 253.557 126.987 253.612 127.05C253.666 127.113 253.703 127.189 253.72 127.27L255.03 133.71C255.045 133.793 255.041 133.877 255.016 133.958C254.992 134.038 254.949 134.111 254.89 134.17L252.72 136.27C252.62 137.332 252.426 138.383 252.14 139.41L253.58 142.68C253.619 142.754 253.64 142.837 253.64 142.92C253.64 143.004 253.619 143.087 253.58 143.16L250 148.59C249.953 148.658 249.89 148.714 249.817 148.752C249.744 148.79 249.663 148.81 249.58 148.81L246.01 148.76C245.173 149.423 244.279 150.012 243.34 150.52L242.25 153.33C242.22 153.41 242.171 153.48 242.106 153.534C242.041 153.588 241.963 153.625 241.88 153.64L235.44 155H235.34ZM229.71 151C229.756 150.991 229.804 150.991 229.85 151C230.93 151.315 232.039 151.519 233.16 151.61C233.28 151.625 233.392 151.677 233.48 151.76L235.48 153.86L241.38 152.67L242.44 149.93C242.489 149.82 242.574 149.728 242.68 149.67C243.679 149.154 244.621 148.534 245.49 147.82C245.582 147.743 245.7 147.704 245.82 147.71L249.29 147.76L252.61 142.76L251.21 139.58C251.17 139.471 251.17 139.35 251.21 139.24C251.519 138.159 251.724 137.051 251.82 135.93C251.83 135.809 251.883 135.696 251.97 135.61L254.07 133.61L252.88 127.71L250.15 126.65C250.033 126.608 249.936 126.522 249.88 126.41C249.361 125.413 248.741 124.471 248.03 123.6C247.959 123.509 247.92 123.396 247.92 123.28V119.8L242.92 116.48L239.75 117.88C239.637 117.921 239.513 117.921 239.4 117.88C238.316 117.567 237.204 117.363 236.08 117.27C235.96 117.256 235.848 117.204 235.76 117.12L233.76 115.02L227.86 116.22L226.81 119C226.768 119.115 226.686 119.211 226.58 119.27C225.577 119.786 224.632 120.406 223.76 121.12C223.717 121.159 223.666 121.189 223.611 121.208C223.556 121.227 223.498 121.235 223.44 121.23L219.97 121.18L216.64 126.18L218.04 129.36C218.072 129.428 218.089 129.501 218.089 129.575C218.089 129.65 218.072 129.723 218.04 129.79C217.744 130.846 217.549 131.928 217.46 133.02C217.451 133.142 217.397 133.256 217.31 133.34L215.21 135.34L216.41 141.24L219.13 142.3C219.251 142.351 219.351 142.443 219.41 142.56C219.926 143.551 220.542 144.486 221.25 145.35C221.324 145.44 221.363 145.554 221.36 145.67V149.15L226.36 152.47L229.54 151.07C229.592 151.037 229.65 151.013 229.71 151V151ZM234.62 147.76C232.213 147.758 229.852 147.104 227.787 145.867C225.722 144.63 224.031 142.857 222.893 140.735C221.756 138.614 221.214 136.224 221.326 133.82C221.438 131.416 222.2 129.087 223.53 127.08V127.08C224.802 125.156 226.552 123.594 228.608 122.548C230.665 121.503 232.957 121.009 235.262 121.114C237.567 121.22 239.804 121.922 241.756 123.152C243.708 124.382 245.308 126.098 246.398 128.131C247.488 130.164 248.032 132.445 247.977 134.752C247.921 137.058 247.268 139.31 246.081 141.289C244.894 143.267 243.214 144.903 241.205 146.038C239.196 147.172 236.927 147.766 234.62 147.76ZM224.37 127.63C223.024 129.661 222.31 132.046 222.319 134.482C222.328 136.918 223.059 139.298 224.42 141.318C225.781 143.339 227.711 144.911 229.965 145.836C232.22 146.76 234.697 146.995 237.085 146.511C239.473 146.028 241.664 144.847 243.381 143.118C245.098 141.389 246.263 139.19 246.731 136.799C247.198 134.408 246.945 131.932 246.006 129.684C245.066 127.436 243.48 125.517 241.45 124.17C240.104 123.269 238.592 122.644 237.002 122.33C235.413 122.016 233.777 122.02 232.189 122.341C230.601 122.663 229.093 123.296 227.751 124.204C226.408 125.112 225.26 126.276 224.37 127.63V127.63Z" fill="white"/>
<path d="M425.83 176.65L410.13 174.53L420.51 96.7201L390.23 92.6401L316.78 160.26L312.92 189.19L376.21 197.73L373.05 221.4L403.33 225.48L406.49 201.82L422.19 203.94L425.83 176.65ZM346.41 165.93L385.17 130.6L379.85 170.44L346.41 165.93Z" fill="#1AC4B6"/>
<path d="M394.13 224.74H394C393.87 224.716 393.755 224.641 393.68 224.533C393.605 224.424 393.576 224.29 393.6 224.16L417 96.2204C417.026 96.0919 417.102 95.9786 417.21 95.9041C417.318 95.8296 417.45 95.7996 417.58 95.8204C417.709 95.8447 417.824 95.9193 417.899 96.0279C417.974 96.1366 418.003 96.2705 417.98 96.4004L394.63 224.33C394.607 224.446 394.544 224.55 394.453 224.625C394.362 224.699 394.248 224.74 394.13 224.74V224.74Z" fill="#1D3440"/>
<path d="M414.83 98.3701C414.822 98.5875 414.728 98.793 414.569 98.9411C414.409 99.0893 414.197 99.168 413.98 99.1601C413.763 99.1521 413.557 99.0581 413.409 98.8987C413.261 98.7393 413.182 98.5276 413.19 98.3101C413.198 98.0926 413.292 97.8872 413.451 97.739C413.611 97.5909 413.823 97.5121 414.04 97.5201C414.257 97.528 414.463 97.6221 414.611 97.7815C414.759 97.9409 414.838 98.1526 414.83 98.3701Z" fill="#1D3440"/>
<path d="M411.5 115.67C411.494 115.832 411.44 115.989 411.345 116.12C411.25 116.252 411.118 116.352 410.966 116.408C410.814 116.465 410.649 116.475 410.491 116.438C410.333 116.4 410.19 116.317 410.08 116.198C409.969 116.079 409.897 115.93 409.871 115.77C409.845 115.61 409.867 115.446 409.935 115.299C410.002 115.151 410.112 115.027 410.25 114.942C410.388 114.857 410.548 114.815 410.71 114.82C410.817 114.824 410.923 114.849 411.021 114.894C411.119 114.939 411.208 115.003 411.281 115.082C411.354 115.161 411.411 115.253 411.449 115.354C411.487 115.455 411.504 115.563 411.5 115.67Z" fill="#1D3440"/>
<path d="M408.17 133C408.166 133.108 408.141 133.214 408.096 133.312C408.051 133.41 407.988 133.498 407.909 133.571C407.83 133.645 407.737 133.702 407.636 133.739C407.535 133.777 407.428 133.794 407.32 133.79C407.213 133.787 407.107 133.764 407.009 133.72C406.911 133.676 406.823 133.613 406.749 133.535C406.676 133.457 406.619 133.365 406.581 133.265C406.543 133.164 406.526 133.057 406.53 132.95C406.532 132.841 406.557 132.734 406.601 132.635C406.645 132.536 406.709 132.447 406.788 132.372C406.867 132.298 406.96 132.24 407.061 132.202C407.163 132.164 407.271 132.146 407.38 132.15C407.596 132.16 407.8 132.255 407.948 132.414C408.096 132.573 408.175 132.783 408.17 133Z" fill="#1D3440"/>
<path d="M401.61 151C401.588 151.201 401.492 151.386 401.342 151.521C401.192 151.655 400.997 151.73 400.795 151.73C400.593 151.73 400.399 151.655 400.248 151.521C400.098 151.386 400.002 151.201 399.98 151C399.967 150.886 399.979 150.77 400.014 150.66C400.049 150.55 400.107 150.449 400.184 150.363C400.261 150.277 400.355 150.208 400.46 150.161C400.566 150.114 400.68 150.09 400.795 150.09C400.91 150.09 401.024 150.114 401.13 150.161C401.235 150.208 401.329 150.277 401.406 150.363C401.483 150.449 401.541 150.55 401.576 150.66C401.611 150.77 401.623 150.886 401.61 151V151Z" fill="#1D3440"/>
<path d="M401.5 167.57C401.497 167.678 401.473 167.785 401.429 167.883C401.384 167.982 401.321 168.071 401.241 168.144C401.162 168.218 401.069 168.275 400.967 168.312C400.866 168.349 400.758 168.366 400.65 168.36C400.488 168.354 400.331 168.3 400.2 168.205C400.068 168.11 399.968 167.978 399.912 167.826C399.855 167.674 399.845 167.509 399.883 167.351C399.92 167.194 400.003 167.05 400.122 166.94C400.241 166.83 400.39 166.757 400.55 166.731C400.71 166.705 400.874 166.728 401.021 166.795C401.169 166.862 401.293 166.972 401.378 167.11C401.463 167.248 401.506 167.408 401.5 167.57Z" fill="#1D3440"/>
<path d="M398.17 184.87C398.166 185.033 398.114 185.19 398.02 185.323C397.926 185.456 397.795 185.558 397.643 185.616C397.491 185.674 397.325 185.685 397.167 185.649C397.008 185.613 396.864 185.53 396.753 185.412C396.642 185.293 396.568 185.144 396.541 184.984C396.515 184.824 396.536 184.659 396.604 184.511C396.671 184.363 396.781 184.238 396.919 184.153C397.057 184.067 397.218 184.024 397.38 184.03C397.596 184.038 397.8 184.131 397.948 184.288C398.096 184.445 398.175 184.655 398.17 184.87V184.87Z" fill="#1D3440"/>
<path d="M394.84 202.17C394.832 202.388 394.738 202.595 394.579 202.745C394.42 202.895 394.208 202.975 393.99 202.97C393.882 202.966 393.776 202.941 393.678 202.896C393.58 202.851 393.492 202.788 393.419 202.709C393.345 202.63 393.288 202.537 393.251 202.436C393.213 202.335 393.196 202.228 393.2 202.12C393.203 202.012 393.228 201.906 393.272 201.808C393.316 201.71 393.379 201.621 393.458 201.548C393.536 201.474 393.628 201.416 393.729 201.378C393.83 201.34 393.937 201.322 394.045 201.325C394.152 201.328 394.258 201.353 394.357 201.397C394.455 201.441 394.543 201.504 394.617 201.583C394.691 201.661 394.749 201.754 394.787 201.854C394.825 201.955 394.843 202.062 394.84 202.17V202.17Z" fill="#1D3440"/>
<path d="M391.5 219.48C391.494 219.642 391.44 219.799 391.345 219.93C391.25 220.062 391.118 220.162 390.966 220.219C390.814 220.275 390.649 220.285 390.491 220.248C390.333 220.21 390.19 220.127 390.08 220.008C389.969 219.889 389.897 219.741 389.871 219.58C389.845 219.42 389.867 219.256 389.935 219.109C390.002 218.961 390.112 218.837 390.25 218.752C390.388 218.667 390.548 218.625 390.71 218.63C390.818 218.633 390.924 218.657 391.023 218.701C391.122 218.746 391.21 218.81 391.284 218.889C391.358 218.968 391.415 219.061 391.452 219.163C391.489 219.264 391.505 219.372 391.5 219.48V219.48Z" fill="#1D3440"/>
<path d="M400.79 151.45C400.677 151.45 400.568 151.411 400.481 151.34C400.393 151.269 400.333 151.17 400.31 151.06C400.295 150.996 400.293 150.929 400.305 150.864C400.316 150.799 400.34 150.737 400.375 150.681C400.41 150.625 400.456 150.577 400.51 150.539C400.564 150.501 400.625 150.474 400.69 150.46L403.17 149.93C403.235 149.916 403.302 149.914 403.368 149.926C403.434 149.938 403.496 149.962 403.552 149.999C403.608 150.035 403.656 150.082 403.694 150.137C403.731 150.193 403.757 150.255 403.77 150.32C403.783 150.385 403.783 150.451 403.771 150.515C403.758 150.58 403.733 150.641 403.697 150.696C403.661 150.751 403.614 150.798 403.56 150.835C403.505 150.871 403.444 150.897 403.38 150.91L400.9 151.44L400.79 151.45Z" fill="#1D3440"/>
<path d="M409.08 142.24C407.9 145.3 406.899 148.425 406.08 151.6C405.33 155.13 405.29 163.03 405.29 163.03" fill="#1D3440"/>
<path d="M405.29 163.53C405.157 163.525 405.032 163.469 404.939 163.375C404.846 163.28 404.792 163.153 404.79 163.02C404.79 162.7 404.85 155.02 405.6 151.5C406.414 148.297 407.416 145.145 408.6 142.06C408.62 141.994 408.653 141.933 408.698 141.881C408.743 141.829 408.798 141.786 408.859 141.756C408.921 141.726 408.989 141.709 409.057 141.706C409.126 141.703 409.195 141.714 409.259 141.739C409.323 141.764 409.381 141.802 409.43 141.85C409.479 141.899 409.517 141.957 409.543 142.021C409.568 142.085 409.58 142.153 409.578 142.222C409.576 142.29 409.56 142.358 409.53 142.42C408.352 145.456 407.35 148.558 406.53 151.71C405.8 155.15 405.75 162.95 405.74 163.03C405.741 163.155 405.695 163.275 405.612 163.367C405.528 163.46 405.414 163.518 405.29 163.53Z" fill="#1D3440"/>
<path d="M222.45 249.84C223.84 227.44 221.29 186.71 263.4 192.11C308.53 197.88 295.62 250.66 295.62 250.66L222.45 249.84Z" fill="#1D3440"/>
<path d="M251.51 236.38C261.661 236.38 269.89 228.151 269.89 218C269.89 207.849 261.661 199.62 251.51 199.62C241.359 199.62 233.13 207.849 233.13 218C233.13 228.151 241.359 236.38 251.51 236.38Z" fill="white"/>
<path d="M253.93 199.65C245.22 198.17 235.93 204.58 235 211.08L269.51 214.26C268.29 206.85 260.83 200.83 253.93 199.65Z" fill="#1D3440"/>
<path d="M265.58 217.54C265.33 222.35 262.71 226.12 259.73 225.96C256.75 225.8 254.53 221.79 254.73 216.96C254.93 212.13 257.6 208.38 260.58 208.54C263.56 208.7 265.82 212.74 265.58 217.54Z" fill="#1D3440"/>
<path d="M251.51 237.38C247.677 237.38 243.93 236.244 240.743 234.114C237.556 231.985 235.072 228.958 233.606 225.417C232.139 221.875 231.755 217.979 232.503 214.219C233.251 210.46 235.096 207.007 237.807 204.296C240.517 201.586 243.97 199.74 247.73 198.993C251.489 198.245 255.386 198.629 258.927 200.095C262.468 201.562 265.495 204.046 267.624 207.233C269.754 210.42 270.89 214.167 270.89 218C270.885 223.138 268.842 228.065 265.208 231.698C261.575 235.331 256.649 237.375 251.51 237.38V237.38ZM251.51 200.63C248.073 200.63 244.712 201.65 241.854 203.56C238.995 205.47 236.768 208.185 235.452 211.361C234.137 214.538 233.794 218.033 234.465 221.404C235.136 224.776 236.793 227.873 239.224 230.303C241.656 232.733 244.754 234.388 248.126 235.057C251.498 235.727 254.993 235.381 258.168 234.064C261.344 232.747 264.058 230.518 265.966 227.659C267.875 224.799 268.892 221.438 268.89 218C268.885 213.393 267.052 208.977 263.793 205.72C260.535 202.463 256.117 200.633 251.51 200.63V200.63Z" fill="#1AC4B6"/>
<path opacity="0.3" d="M290.49 249.28H290.37C290.306 249.266 290.245 249.239 290.192 249.201C290.138 249.163 290.092 249.115 290.058 249.059C290.023 249.003 290 248.94 289.991 248.875C289.981 248.81 289.984 248.744 290 248.68C290 248.55 293.22 234.99 289.91 221.28C289.878 221.148 289.901 221.008 289.972 220.891C290.043 220.775 290.158 220.692 290.29 220.66C290.423 220.628 290.563 220.651 290.679 220.722C290.795 220.793 290.878 220.908 290.91 221.04C294.28 235.04 291.03 248.78 291 248.91C290.971 249.021 290.904 249.118 290.811 249.186C290.718 249.253 290.605 249.286 290.49 249.28V249.28Z" fill="white"/>
<path opacity="0.3" d="M287.7 213.76C287.604 213.759 287.51 213.731 287.429 213.68C287.348 213.629 287.283 213.556 287.24 213.47C285.997 210.723 284.404 208.148 282.5 205.81C282.417 205.708 282.378 205.577 282.391 205.446C282.404 205.315 282.469 205.194 282.57 205.11C282.621 205.067 282.68 205.035 282.743 205.016C282.807 204.996 282.874 204.99 282.94 204.996C283.006 205.003 283.07 205.022 283.128 205.054C283.187 205.085 283.238 205.128 283.28 205.18C285.231 207.586 286.868 210.23 288.15 213.05C288.179 213.109 288.195 213.173 288.198 213.238C288.202 213.304 288.192 213.369 288.169 213.431C288.147 213.492 288.113 213.549 288.068 213.597C288.023 213.645 287.97 213.683 287.91 213.71C287.844 213.741 287.773 213.758 287.7 213.76V213.76Z" fill="white"/>
<path d="M128.73 354.92H128.36C127.034 354.883 125.777 354.32 124.865 353.357C123.954 352.393 123.463 351.106 123.5 349.78C123.537 348.454 124.1 347.197 125.063 346.285C126.027 345.374 127.314 344.883 128.64 344.92H128.73C131.62 344.92 138.57 341.41 153.11 318.49C153.496 317.881 154.009 317.363 154.614 316.971C155.219 316.579 155.901 316.323 156.615 316.219C157.328 316.116 158.055 316.168 158.746 316.372C159.438 316.575 160.077 316.926 160.62 317.4C172.039 327.216 184.492 335.76 197.76 342.88C198.374 343.159 198.925 343.56 199.38 344.058C199.835 344.556 200.185 345.14 200.408 345.777C200.632 346.414 200.724 347.089 200.679 347.762C200.634 348.435 200.454 349.092 200.149 349.693C199.844 350.295 199.42 350.829 198.903 351.262C198.387 351.696 197.787 352.02 197.142 352.216C196.496 352.412 195.818 352.475 195.147 352.402C194.477 352.329 193.828 352.121 193.24 351.79C180.909 345.237 169.252 337.487 158.44 328.65C146.25 347 137.21 354.92 128.73 354.92Z" fill="#1D3440"/>
<path d="M159.67 316.5H159.24C158.454 316.386 157.746 315.965 157.269 315.33C156.793 314.694 156.589 313.896 156.7 313.11C157.41 308.11 156.53 289.48 150.22 274.98C149.94 274.339 149.893 273.621 150.086 272.949C150.28 272.277 150.702 271.693 151.28 271.3C164.98 261.97 194.16 260.85 195.4 260.81C195.794 260.797 196.187 260.861 196.556 261C196.925 261.138 197.263 261.348 197.551 261.618C197.839 261.887 198.071 262.21 198.233 262.569C198.396 262.928 198.487 263.316 198.5 263.71C198.513 264.104 198.449 264.496 198.31 264.865C198.171 265.234 197.961 265.573 197.692 265.86C197.423 266.148 197.099 266.38 196.74 266.543C196.382 266.706 195.994 266.797 195.6 266.81C195.33 266.81 169.82 267.81 156.72 275.01C162.3 289.45 163.57 307.44 162.64 313.95C162.532 314.66 162.173 315.308 161.628 315.776C161.083 316.244 160.388 316.501 159.67 316.5Z" fill="#1D3440"/>
<path d="M164.71 312.62C162.71 307.91 153.71 308.44 148.44 312.48C145.62 314.63 141.8 321.12 141.44 323.48C141.32 324.041 141.338 324.622 141.493 325.174C141.647 325.727 141.933 326.233 142.327 326.65C142.72 327.068 143.209 327.383 143.752 327.569C144.294 327.755 144.873 327.807 145.44 327.72C148.89 327.42 153.62 322.41 153.62 322.41C150.47 325.5 154.54 327.68 160.62 323.21C163.94 320.72 166.94 317.89 164.71 312.62Z" fill="#1AC4B6"/>
<path d="M336.71 251.16C336.664 251.17 336.616 251.17 336.57 251.16C336.506 251.143 336.447 251.113 336.395 251.072C336.343 251.031 336.3 250.98 336.268 250.923C336.236 250.865 336.216 250.801 336.21 250.735C336.203 250.669 336.21 250.603 336.23 250.54C337.56 245.9 339.01 243.07 340.92 241.54C340.621 240.465 340.677 239.321 341.08 238.28C341.546 237.065 342.369 236.019 343.44 235.28C343.149 234.965 342.942 234.582 342.839 234.166C342.736 233.75 342.74 233.314 342.85 232.9C343.212 231.647 343.961 230.541 344.99 229.74C344.619 229.325 344.416 228.787 344.42 228.23C344.42 225.23 349.93 220.71 356.18 219.85C356.313 219.832 356.447 219.866 356.554 219.947C356.661 220.028 356.731 220.147 356.75 220.28C356.769 220.413 356.734 220.547 356.653 220.654C356.572 220.761 356.453 220.832 356.32 220.85C350.38 221.66 345.4 225.96 345.42 228.23C345.418 228.569 345.547 228.895 345.78 229.14C347.125 228.228 348.639 227.593 350.232 227.272C351.825 226.951 353.467 226.95 355.06 227.27C358.13 227.86 359.38 228.51 359.24 229.44C358.96 231.19 352.43 231.56 348.05 231.04C347.265 230.969 346.502 230.748 345.8 230.39C344.857 231.061 344.156 232.019 343.8 233.12C343.714 233.412 343.715 233.722 343.802 234.013C343.889 234.304 344.058 234.563 344.29 234.76C346.15 233.76 348.76 233.4 352.21 234.16C356.74 235.16 356.91 235.71 357.02 236.04C357.055 236.157 357.058 236.281 357.028 236.399C356.998 236.517 356.937 236.624 356.85 236.71C355.9 237.71 348.95 237.24 345.46 236.38C345.039 236.284 344.632 236.133 344.25 235.93C343.217 236.558 342.422 237.511 341.99 238.64C341.701 239.371 341.622 240.167 341.76 240.94C341.938 240.834 342.122 240.737 342.31 240.65C344.38 239.65 346.88 239.83 349.97 241.15C351.97 242.02 352.97 242.8 353.07 243.59C353.074 243.793 353.024 243.993 352.923 244.169C352.823 244.345 352.677 244.491 352.5 244.59C350.97 245.59 345.63 245.45 342.85 243.97C342.211 243.623 341.678 243.108 341.31 242.48C339.68 243.98 338.36 246.65 337.16 250.84C337.124 250.931 337.062 251.01 336.982 251.066C336.902 251.123 336.808 251.156 336.71 251.16V251.16ZM342.13 241.83C342.408 242.347 342.833 242.772 343.35 243.05C345.61 244.25 350.05 244.52 351.71 243.85C352.05 243.71 352.1 243.6 352.1 243.6C352.1 243.6 352.05 243.04 349.6 241.99C346.8 240.79 344.6 240.62 342.77 241.47C342.549 241.576 342.336 241.697 342.13 241.83V241.83ZM345.47 235.26L345.72 235.33C348.977 236.081 352.328 236.333 355.66 236.08C354.478 235.642 353.26 235.307 352.02 235.08C349.866 234.497 347.589 234.559 345.47 235.26V235.26ZM346.73 229.64C347.192 229.806 347.672 229.913 348.16 229.96C353.16 230.55 357.55 229.86 358.16 229.23C357.99 229.08 357.32 228.65 354.84 228.18C352.049 227.624 349.151 228.145 346.73 229.64V229.64Z" fill="#1D3440"/>
<path d="M206.53 353.25C207.19 353.04 206.97 352.4 206.23 352.4H192.69C166.91 349.67 148.9 353.33 160.25 354.19C171.6 355.05 159.45 354.87 151.16 358.01C142.87 361.15 212.81 361.94 219.16 358.01C225 354.39 197.39 356.18 206.53 353.25Z" fill="#1D3440"/>
<path d="M303.47 357.24L185.67 353.33L180.78 239.11L319.89 242.22L303.47 357.24Z" fill="#1AC4B6"/>
<path d="M222.45 355.05C222.324 355.051 222.203 355.003 222.11 354.918C222.017 354.833 221.96 354.716 221.95 354.59L212.51 239.87C212.502 239.738 212.545 239.608 212.631 239.507C212.717 239.406 212.839 239.343 212.97 239.33C213.102 239.324 213.231 239.368 213.331 239.454C213.431 239.539 213.495 239.659 213.51 239.79L223 354.51C223.006 354.576 222.998 354.642 222.978 354.705C222.958 354.767 222.925 354.826 222.883 354.876C222.84 354.926 222.788 354.967 222.729 354.997C222.67 355.027 222.606 355.045 222.54 355.05H222.45Z" fill="#1D3440"/>
<path d="M303.47 357.24L335.13 352.42L345.1 246.21L319.89 242.22L303.47 357.24Z" fill="#1AC4B6"/>
<path opacity="0.2" d="M303.47 357.24L335.13 352.42L345.1 246.21L319.89 242.22L303.47 357.24Z" fill="black"/>
<path d="M195.73 331.32L192.83 263.45C192.758 261.773 193.032 260.1 193.633 258.533C194.234 256.966 195.15 255.539 196.324 254.34C197.498 253.141 198.906 252.196 200.46 251.563C202.015 250.93 203.682 250.623 205.36 250.66L293.42 252.66C295.154 252.699 296.86 253.105 298.425 253.852C299.991 254.599 301.38 255.669 302.502 256.992C303.624 258.315 304.452 259.86 304.933 261.527C305.413 263.193 305.535 264.943 305.29 266.66L295.53 335C295.108 337.993 293.595 340.725 291.283 342.672C288.971 344.619 286.021 345.643 283 345.55L207.61 343.05C204.515 342.954 201.571 341.692 199.367 339.517C197.164 337.341 195.865 334.413 195.73 331.32V331.32Z" fill="#1D3440"/>
<path d="M205.25 271.49L218.87 271.92L218.76 275.43L210.23 275.16L210.15 277.78L218.06 278.03L217.95 281.39L210.04 281.13L209.94 284.38L218.71 284.66L218.59 288.38L204.72 287.94L205.25 271.49Z" fill="white"/>
<path d="M221.4 288.47L221.92 272.02L230.4 272.29C231.616 272.284 232.826 272.459 233.99 272.81C234.816 273.086 235.521 273.637 235.99 274.37C236.338 274.904 236.572 275.504 236.677 276.132C236.783 276.76 236.758 277.404 236.604 278.022C236.45 278.64 236.171 279.22 235.783 279.726C235.395 280.231 234.908 280.651 234.35 280.96C233.782 281.253 233.171 281.455 232.54 281.56C233.005 281.71 233.447 281.925 233.85 282.2C234.142 282.471 234.404 282.773 234.63 283.1C234.888 283.411 235.116 283.746 235.31 284.1L237.62 288.95L231.88 288.76L229.32 283.65C229.117 283.162 228.818 282.72 228.44 282.35C228.081 282.09 227.653 281.944 227.21 281.93H226.76L226.55 288.6L221.4 288.47ZM226.82 278.85L228.96 278.92C229.415 278.892 229.866 278.829 230.31 278.73C230.645 278.679 230.949 278.504 231.16 278.24C231.377 277.973 231.5 277.643 231.51 277.3C231.529 277.071 231.497 276.841 231.416 276.627C231.334 276.412 231.206 276.219 231.04 276.06C230.482 275.699 229.823 275.528 229.16 275.57L226.92 275.5L226.82 278.85Z" fill="white"/>
<path d="M239.28 289L239.8 272.55L248.27 272.82C249.486 272.813 250.696 272.988 251.86 273.34C252.687 273.613 253.394 274.164 253.86 274.9C254.368 275.701 254.606 276.644 254.54 277.59C254.543 278.388 254.33 279.172 253.923 279.858C253.517 280.545 252.932 281.109 252.23 281.49C251.661 281.781 251.051 281.983 250.42 282.09C250.882 282.239 251.32 282.455 251.72 282.73C252.019 282.993 252.285 283.292 252.51 283.62C252.766 283.933 252.993 284.267 253.19 284.62L255.5 289.46L249.76 289.28L247.2 284.17C246.996 283.683 246.697 283.241 246.32 282.87C245.963 282.6 245.528 282.453 245.08 282.45H244.64L244.42 289.13L239.28 289ZM244.69 279.38L246.84 279.44C247.295 279.423 247.747 279.362 248.19 279.26C248.523 279.21 248.824 279.035 249.03 278.77C249.254 278.508 249.378 278.175 249.38 277.83C249.402 277.602 249.372 277.372 249.292 277.157C249.213 276.942 249.085 276.748 248.92 276.59C248.363 276.22 247.697 276.048 247.03 276.1L244.8 276.03L244.69 279.38Z" fill="white"/>
<path d="M256.32 281.36C256.243 280.212 256.421 279.061 256.841 277.99C257.262 276.919 257.914 275.955 258.752 275.166C259.589 274.377 260.591 273.784 261.685 273.428C262.779 273.073 263.939 272.964 265.08 273.11C266.232 273.072 267.379 273.265 268.455 273.679C269.53 274.093 270.511 274.719 271.34 275.52C272.08 276.371 272.638 277.365 272.982 278.439C273.326 279.514 273.448 280.647 273.34 281.77C273.348 283.403 272.964 285.015 272.22 286.47C271.546 287.66 270.538 288.626 269.32 289.25C267.885 289.936 266.297 290.239 264.71 290.13C263.128 290.143 261.563 289.801 260.13 289.13C258.91 288.468 257.915 287.459 257.27 286.23C256.514 284.724 256.185 283.039 256.32 281.36V281.36ZM261.4 281.54C261.25 282.8 261.536 284.074 262.21 285.15C262.525 285.502 262.908 285.787 263.336 285.987C263.764 286.188 264.228 286.301 264.7 286.318C265.172 286.336 265.643 286.259 266.084 286.091C266.526 285.922 266.929 285.667 267.27 285.34C268.011 284.217 268.363 282.882 268.27 281.54C268.404 280.334 268.11 279.12 267.44 278.11C267.137 277.76 266.762 277.48 266.341 277.289C265.92 277.097 265.463 276.999 265 277C264.533 276.966 264.065 277.039 263.63 277.212C263.196 277.385 262.806 277.654 262.49 278C261.733 279.02 261.348 280.27 261.4 281.54V281.54Z" fill="white"/>
<path d="M275.91 290.21L276.43 273.75L284.9 274.02C286.116 274.018 287.325 274.193 288.49 274.54C289.313 274.821 290.018 275.37 290.49 276.1C290.995 276.902 291.233 277.844 291.17 278.79C291.175 279.59 290.963 280.376 290.556 281.064C290.149 281.753 289.563 282.318 288.86 282.7C288.288 282.983 287.679 283.182 287.05 283.29C287.513 283.442 287.951 283.661 288.35 283.94C288.649 284.203 288.914 284.502 289.14 284.83C289.398 285.141 289.625 285.476 289.82 285.83L292.13 290.68L286.39 290.5L283.83 285.38C283.627 284.895 283.327 284.456 282.95 284.09C282.591 283.822 282.158 283.671 281.71 283.66H281.27L281.05 290.34L275.91 290.21ZM281.32 280.58L283.47 280.65C283.925 280.633 284.377 280.572 284.82 280.47C285.151 280.417 285.451 280.242 285.66 279.98C285.896 279.701 286.021 279.345 286.01 278.98C286.032 278.754 286.002 278.525 285.922 278.312C285.842 278.099 285.715 277.907 285.55 277.75C284.992 277.38 284.327 277.208 283.66 277.26L281.43 277.19L281.32 280.58Z" fill="white"/>
<path d="M284 318.16C283.813 318.163 283.626 318.127 283.454 318.053C283.282 317.978 283.127 317.868 283 317.73L274.44 308.36L265.2 316.8C264.944 317.034 264.606 317.158 264.259 317.143C263.912 317.128 263.585 316.976 263.35 316.72L254.79 307.35L245.55 315.79C245.294 316.024 244.956 316.148 244.609 316.133C244.262 316.118 243.935 315.966 243.7 315.71L235.13 306.34L225.9 314.78C225.766 314.902 225.608 314.995 225.436 315.053C225.264 315.112 225.081 315.134 224.9 315.12C224.553 315.099 224.227 314.945 223.99 314.69L215.43 305.33L206.2 313.76C205.943 313.995 205.602 314.119 205.254 314.104C204.905 314.089 204.577 313.936 204.34 313.68C204.224 313.553 204.133 313.404 204.074 313.242C204.016 313.08 203.99 312.908 203.998 312.736C204.006 312.564 204.049 312.395 204.123 312.239C204.197 312.084 204.302 311.945 204.43 311.83L214.63 302.5C214.888 302.265 215.228 302.141 215.577 302.156C215.925 302.171 216.254 302.323 216.49 302.58L225.05 311.95L234.28 303.51C234.542 303.28 234.882 303.158 235.23 303.17C235.578 303.188 235.905 303.343 236.14 303.6L244.7 312.97L253.94 304.53C254.066 304.412 254.215 304.321 254.376 304.262C254.538 304.202 254.71 304.175 254.882 304.183C255.054 304.19 255.223 304.232 255.379 304.305C255.535 304.378 255.675 304.482 255.79 304.61L264.35 313.98L273.59 305.54C273.846 305.305 274.185 305.182 274.532 305.197C274.879 305.212 275.206 305.364 275.44 305.62L285 316C285.171 316.191 285.283 316.427 285.321 316.681C285.36 316.934 285.324 317.193 285.218 317.426C285.112 317.659 284.941 317.857 284.724 317.994C284.508 318.131 284.257 318.203 284 318.2V318.16Z" fill="white"/>
<path d="M125.75 359.67L119.49 356.68L113.91 329.51L116.94 326.18L125.75 359.67Z" fill="#1AC4B6"/>
<path d="M125.75 359.67L134.06 354.81L126.94 332.43L116.94 326.18L125.75 359.67Z" fill="#1AC4B6"/>
<path opacity="0.2" d="M125.75 359.67L134.06 354.81L126.94 332.43L116.94 326.18L125.75 359.67Z" fill="black"/>
<path d="M262 364.61H261.31C259.984 364.574 258.727 364.013 257.814 363.05C256.902 362.087 256.409 360.801 256.445 359.475C256.481 358.149 257.042 356.891 258.005 355.979C258.968 355.067 260.254 354.574 261.58 354.61C269.28 354.86 285.58 350.13 294.9 341.09C295.463 340.538 296.148 340.127 296.9 339.89C312.69 335.15 318.56 344.72 318.8 345.13L310.2 350.22C310.23 350.284 310.267 350.344 310.31 350.4C310.22 350.27 307.98 347.4 300.86 349.16C289.17 359.82 271.23 364.61 262 364.61Z" fill="#1D3440"/>
<path d="M261.39 371.25L243.18 370.11L241.75 336.53L266.22 337.44L261.39 371.25Z" fill="#1AC4B6"/>
<path d="M261.39 371.25L265.65 367.01L268.29 346.08L266.22 337.44L261.39 371.25Z" fill="#1AC4B6"/>
<path opacity="0.2" d="M261.39 371.25L265.65 367.01L268.29 346.08L266.22 337.44L261.39 371.25Z" fill="black"/>
<path d="M366.91 358.54C366.256 358.539 365.621 358.325 365.1 357.93C354.7 350.03 340.65 336 335.26 322.47C335.179 322.274 335.122 322.069 335.09 321.86C332.46 306.22 329.95 273.31 329.84 271.92C329.81 271.526 329.859 271.13 329.982 270.755C330.106 270.379 330.302 270.032 330.56 269.733C331.08 269.128 331.819 268.755 332.615 268.695C333.411 268.635 334.197 268.894 334.802 269.415C335.407 269.935 335.78 270.674 335.84 271.47C335.84 271.8 338.41 305.03 340.97 320.54C346.35 333.7 360.97 347.21 368.75 353.15C369.251 353.53 369.62 354.058 369.804 354.659C369.989 355.26 369.98 355.904 369.779 356.5C369.578 357.095 369.195 357.613 368.683 357.979C368.172 358.345 367.559 358.541 366.93 358.54H366.91Z" fill="#1D3440"/>
<path d="M380.78 360.05C378.46 360.05 375.83 359 372.96 356.93C372.316 356.463 371.883 355.759 371.757 354.974C371.632 354.188 371.823 353.384 372.29 352.74C372.757 352.095 373.461 351.663 374.246 351.537C375.032 351.412 375.836 351.603 376.48 352.07C378.96 353.86 380.31 354.07 380.78 354.07C381.576 354.07 382.339 354.386 382.901 354.949C383.464 355.511 383.78 356.274 383.78 357.07C383.78 357.866 383.464 358.629 382.901 359.191C382.339 359.754 381.576 360.07 380.78 360.07V360.05Z" fill="#1D3440"/>
<path d="M373.8 356.84C377.01 347.31 390.17 349.19 394.71 350.61C398.588 351.736 402.308 353.349 405.78 355.41C408.23 357.01 408.27 359.7 405 361.23C401 363.11 390.84 361.44 390.84 361.44C396.08 363.73 390.84 367.44 381.63 363.8C378.64 362.62 372.67 360.34 373.8 356.84Z" fill="#1AC4B6"/>
<path d="M341.86 276C340.67 284.1 333.96 290.07 328.5 289.27C323.04 288.47 322.82 281.27 324.01 273.13C325.2 264.99 327.36 259.13 332.82 259.93C338.28 260.73 343.05 267.93 341.86 276Z" fill="#1D3440"/>
<path d="M209.88 243.7C210.333 243.7 210.7 243.333 210.7 242.88C210.7 242.427 210.333 242.06 209.88 242.06C209.427 242.06 209.06 242.427 209.06 242.88C209.06 243.333 209.427 243.7 209.88 243.7Z" fill="#1D3440"/>
<path d="M218.21 248.78C218.21 248.942 218.162 249.101 218.072 249.236C217.982 249.37 217.854 249.475 217.704 249.538C217.554 249.6 217.389 249.616 217.23 249.584C217.071 249.553 216.925 249.474 216.81 249.36C216.696 249.245 216.618 249.099 216.586 248.94C216.554 248.781 216.571 248.616 216.633 248.466C216.695 248.316 216.8 248.188 216.935 248.098C217.07 248.008 217.228 247.96 217.39 247.96C217.608 247.96 217.816 248.046 217.97 248.2C218.124 248.354 218.21 248.562 218.21 248.78Z" fill="#1D3440"/>
<path d="M219.13 345.68C219.13 345.842 219.082 346.001 218.992 346.135C218.902 346.27 218.774 346.375 218.624 346.437C218.474 346.5 218.309 346.516 218.15 346.484C217.991 346.452 217.845 346.374 217.73 346.26C217.616 346.145 217.538 345.999 217.506 345.84C217.474 345.681 217.491 345.516 217.553 345.366C217.615 345.216 217.72 345.088 217.855 344.998C217.99 344.908 218.148 344.86 218.31 344.86C218.528 344.86 218.736 344.946 218.89 345.1C219.044 345.254 219.13 345.462 219.13 345.68V345.68Z" fill="#1D3440"/>
<path d="M226.64 351.59C226.64 351.752 226.592 351.911 226.502 352.046C226.412 352.18 226.284 352.286 226.134 352.348C225.984 352.41 225.819 352.426 225.66 352.394C225.501 352.363 225.355 352.285 225.24 352.17C225.125 352.055 225.047 351.909 225.016 351.75C224.984 351.591 225 351.426 225.062 351.276C225.124 351.126 225.23 350.998 225.364 350.908C225.499 350.818 225.658 350.77 225.82 350.77C226.037 350.77 226.246 350.856 226.4 351.01C226.554 351.164 226.64 351.373 226.64 351.59Z" fill="#1D3440"/>
<path d="M82.51 361.42C81.0704 361.353 79.6643 360.963 78.3955 360.279C77.1268 359.596 76.0279 358.636 75.18 357.47C75.1385 357.417 75.1082 357.355 75.0912 357.289C75.0742 357.224 75.0707 357.155 75.081 357.088C75.0912 357.021 75.115 356.957 75.1509 356.899C75.1869 356.842 75.2341 356.792 75.2898 356.753C75.3455 356.715 75.4085 356.688 75.475 356.674C75.5415 356.66 75.61 356.66 75.6765 356.674C75.7429 356.688 75.8059 356.715 75.8615 356.754C75.9171 356.793 75.9642 356.843 76 356.9C77.87 359.6 82 361.03 83.8 360.18C83.9803 360.104 84.141 359.987 84.27 359.84C83.3605 359.44 82.5636 358.822 81.9497 358.04C81.3357 357.259 80.9237 356.339 80.75 355.36C80.52 354.09 80.34 352.36 81.38 352.14C82.82 351.82 84.7 355.29 85.38 357.92C85.5032 358.355 85.5472 358.809 85.51 359.26C86.0868 359.432 86.6935 359.48 87.29 359.4C87.5588 359.38 87.8204 359.303 88.058 359.176C88.2956 359.048 88.504 358.873 88.67 358.66C88.0119 358.164 87.466 357.534 87.0679 356.812C86.6699 356.09 86.4286 355.292 86.36 354.47C85.98 351.73 86.27 351.26 86.57 351.02C86.6672 350.946 86.7832 350.9 86.9051 350.887C87.027 350.875 87.1498 350.897 87.26 350.95C88.33 351.4 89.62 355.28 89.87 357.48C89.9 357.709 89.9 357.941 89.87 358.17C90.3011 358.336 90.7582 358.424 91.22 358.43C92.068 358.463 92.9067 358.244 93.63 357.8C93.49 357.71 93.36 357.61 93.23 357.51C92.23 356.62 91.77 355.2 91.95 353.18C92.09 351.61 92.44 350.75 93.07 350.48C93.2733 350.399 93.4958 350.378 93.7107 350.421C93.9255 350.463 94.1233 350.567 94.28 350.72C94.9551 351.466 95.4595 352.349 95.7583 353.309C96.0571 354.27 96.143 355.283 96.01 356.28C95.9232 356.695 95.7494 357.087 95.5 357.43C97.34 357.75 99.92 357.23 102.15 356.68C102.216 356.664 102.284 356.662 102.351 356.672C102.417 356.683 102.481 356.707 102.539 356.742C102.596 356.777 102.646 356.823 102.686 356.878C102.726 356.933 102.754 356.995 102.77 357.06C102.786 357.126 102.788 357.194 102.778 357.261C102.767 357.327 102.744 357.391 102.708 357.449C102.673 357.506 102.627 357.557 102.572 357.596C102.518 357.636 102.456 357.664 102.39 357.68C99.68 358.35 96.76 358.9 94.7 358.3C93.6945 359.065 92.4631 359.473 91.2 359.46C90.6395 359.453 90.0846 359.348 89.56 359.15C89.3274 359.51 89.0153 359.812 88.6477 360.032C88.2802 360.252 87.867 360.385 87.44 360.42C86.6883 360.517 85.9247 360.452 85.2 360.23C84.9667 360.623 84.6174 360.934 84.2 361.12C83.6637 361.337 83.0881 361.439 82.51 361.42V361.42ZM81.65 353.14C81.5117 353.82 81.5391 354.523 81.73 355.19C81.8711 355.99 82.2029 356.744 82.6973 357.388C83.1917 358.032 83.8341 358.547 84.57 358.89C84.556 358.653 84.5158 358.418 84.45 358.19C83.67 355.33 82.17 353.36 81.65 353.14V353.14ZM87.22 352.27C87.2265 352.96 87.2834 353.649 87.39 354.33C87.5003 355.549 88.0388 356.69 88.91 357.55C88.6639 355.704 88.0917 353.916 87.22 352.27V352.27ZM93.51 351.4C93.51 351.4 93.13 351.59 92.99 353.26C92.85 354.93 93.14 356.08 93.92 356.75C94.1046 356.9 94.306 357.027 94.52 357.13C94.783 356.849 94.969 356.504 95.06 356.13C95.2381 354.556 94.8129 352.973 93.87 351.7C93.66 351.44 93.54 351.4 93.51 351.4V351.4Z" fill="#1D3440"/>
<path d="M228.87 368.98L231.58 364.28L228.87 359.58H225.97L227.61 364.28L225.97 368.98H228.87Z" fill="#1D3440"/>
<path d="M226.16 366.73C225.826 366.752 225.491 366.704 225.176 366.591C224.86 366.478 224.572 366.301 224.327 366.072C224.083 365.843 223.888 365.566 223.755 365.259C223.622 364.952 223.554 364.62 223.554 364.285C223.554 363.95 223.622 363.619 223.755 363.312C223.888 363.004 224.083 362.728 224.327 362.499C224.572 362.269 224.86 362.093 225.176 361.98C225.491 361.866 225.826 361.819 226.16 361.84L221.56 360.92L220.33 364.64L222.39 367.78L226.16 366.73Z" fill="#1D3440"/>
<path d="M226.56 359.58H221.13L218.42 364.28L221.13 368.98H226.56L229.27 364.28L226.56 359.58ZM223.85 366.73C223.365 366.732 222.89 366.59 222.486 366.322C222.082 366.054 221.766 365.672 221.579 365.225C221.392 364.777 221.342 364.284 221.436 363.808C221.529 363.332 221.762 362.895 222.104 362.551C222.446 362.208 222.883 361.973 223.358 361.878C223.834 361.783 224.327 361.831 224.775 362.016C225.223 362.201 225.607 362.515 225.876 362.918C226.146 363.321 226.29 363.795 226.29 364.28C226.29 364.928 226.033 365.55 225.576 366.009C225.119 366.468 224.498 366.727 223.85 366.73V366.73Z" fill="#1AC4B6"/>
<path d="M417.89 359.26L415.88 355.77L417.89 352.28H420.04L418.83 355.77L420.04 359.26H417.89Z" fill="#1AC4B6"/>
<path d="M419.9 357.59C420.15 357.609 420.4 357.576 420.637 357.493C420.873 357.41 421.09 357.279 421.273 357.109C421.457 356.939 421.603 356.732 421.703 356.503C421.803 356.273 421.855 356.026 421.855 355.775C421.855 355.525 421.803 355.277 421.703 355.048C421.603 354.818 421.457 354.612 421.273 354.442C421.09 354.271 420.873 354.141 420.637 354.058C420.4 353.975 420.15 353.942 419.9 353.96L423.32 353.28L424.23 356.04L422.71 358.37L419.9 357.59Z" fill="#1AC4B6"/>
<path d="M419.61 352.28H423.61L425.61 355.77L423.61 359.26H419.61L417.61 355.77L419.61 352.28ZM421.61 357.59C421.97 357.592 422.323 357.487 422.624 357.288C422.924 357.09 423.159 356.806 423.298 356.474C423.438 356.141 423.475 355.775 423.406 355.421C423.337 355.068 423.164 354.742 422.91 354.487C422.656 354.231 422.332 354.057 421.979 353.986C421.625 353.915 421.259 353.95 420.926 354.088C420.593 354.225 420.308 354.459 420.107 354.758C419.907 355.058 419.8 355.41 419.8 355.77C419.799 356.01 419.845 356.247 419.936 356.468C420.027 356.69 420.161 356.891 420.33 357.06C420.499 357.229 420.7 357.363 420.922 357.454C421.143 357.545 421.38 357.592 421.62 357.59H421.61Z" fill="#1D3440"/>
<path d="M343 363.9H347.52C348.086 363.897 348.627 363.671 349.027 363.27C349.426 362.869 349.65 362.326 349.65 361.76V361.76C349.65 361.194 349.426 360.651 349.027 360.25C348.627 359.849 348.086 359.623 347.52 359.62H343C342.432 359.62 341.888 359.846 341.487 360.247C341.085 360.648 340.86 361.193 340.86 361.76V361.76C340.86 362.328 341.085 362.872 341.487 363.273C341.888 363.675 342.432 363.9 343 363.9V363.9Z" fill="#1D3440"/>
<path d="M335.73 359.86C336.15 359.097 336.783 358.474 337.553 358.067C338.322 357.659 339.194 357.486 340.061 357.569C340.928 357.651 341.751 357.986 342.43 358.531C343.109 359.076 343.614 359.807 343.882 360.636C344.15 361.464 344.17 362.353 343.939 363.192C343.708 364.031 343.236 364.785 342.582 365.359C341.928 365.934 341.12 366.305 340.258 366.426C339.396 366.547 338.517 366.412 337.73 366.04C336.649 365.482 335.832 364.52 335.457 363.362C335.082 362.204 335.18 360.946 335.73 359.86Z" fill="#1AC4B6"/>
<path d="M336.95 366.039L338.189 366.623L342.496 357.487L341.257 356.903L336.95 366.039Z" fill="#1D3440"/>
</svg>
